<?xml version="1.0" encoding="UTF-8"?>
<svg width="575px" height="51px" viewBox="0 0 575 51" version="1.1" xmlns="http://www.w3.org/2000/svg" xmlns:xlink="http://www.w3.org/1999/xlink">
    <!-- Generator: Sketch 58 (84663) - https://sketch.com -->
    <title>matter logotype white@1x</title>
    <desc>Created with Sketch.</desc>
    <defs>
        <filter x="0.0%" y="0.0%" width="100.0%" height="100.0%" filterUnits="objectBoundingBox" id="filter-1">
            <feGaussianBlur stdDeviation="0" in="SourceGraphic"></feGaussianBlur>
        </filter>
    </defs>
    <g id="matter-logotype-white" stroke="none" stroke-width="1" fill="none" fill-rule="evenodd">
        <path d="M31.2748914,0 L43.789301,23.3274004 L55.5029714,0 L87,0 L87,50.6708475 L63.8619768,50.6708475 L63.8619768,23.26954 L54.3716501,40.7633258 L33.7543161,40.7633258 L23.1380232,22.3457872 L23.1380232,51 L0,51 L0,0 L31.2748914,0 Z M282,0 L282,17.115932 L259.580838,17.115932 L259.580838,51 L235.437126,51 L235.437126,17.115932 L213,17.115932 L213,0 L282,0 Z M372,0 L372,17.115932 L349.580838,17.115932 L349.580838,51 L325.437126,51 L325.437126,17.115932 L303,17.115932 L303,0 L372,0 Z M467,2.20268248e-13 L467,14.1410168 L422.117341,14.1410168 L422.117,19.072 L461.394154,19.0722038 L461.394154,32.2383053 L422.117,32.238 L422.117341,37.3205683 L467,37.3205683 L467,51 L398,51 L398,2.20268248e-13 L467,2.20268248e-13 Z M497,2.95263959e-06 L546.109645,2.95263959e-06 C573.530734,-0.0102546476 578.323077,26.7088133 560.486674,36.3394494 L575,51 L546.571574,51 L536.119714,39.7974473 C532.089073,39.7971461 527.207647,39.7805012 521.475436,39.7475124 L520.650761,39.7426885 L520.650761,50.6729605 L497,50.6729605 L497,2.95263959e-06 L546.109645,2.95263959e-06 Z M163.04878,0 L163.048,0.018 L171.609756,0.0186365927 L194,51 L170.95122,51 L166.182,40.1416366 L140.817,40.1416366 L136.04878,51 L113,51 L135.390244,0.0186365927 L143.951,0.018 L143.95122,0 L163.04878,0 Z M155.199,15.135 L151.799,15.135 L146.597,26.9806366 L160.402,26.9806366 L155.199,15.135 Z M543.423858,15.044183 L520.650761,15.044183 L520.650761,24.6477734 L543.423858,24.6477734 C550.018883,24.6477734 550.018883,15.044183 543.423858,15.044183 Z" id="logotype" fill="#FFFFFF" fill-rule="nonzero" filter="url(#filter-1)"></path>
    </g>
</svg>